<?xml version="1.0" encoding="UTF-8"?>
<svg xmlns="http://www.w3.org/2000/svg" viewBox="0 0 886.89 91.28">
  <defs>
    <style>
      .cls-1 {
        fill: #f89e6a;
      }

      .cls-2 {
        fill: #6d6a78;
      }
    </style>
  </defs>
  <g id="Layer_1" data-name="Layer 1">
    <g>
      <path class="cls-2" d="M130.53,82.4c-5.79,0-11.32-.72-16.61-2.15-5.29-1.43-9.56-3.24-12.82-5.44l6.48-14.67c3.13,2,6.73,3.64,10.83,4.94,4.09,1.3,8.16,1.95,12.22,1.95,2.79,0,5-.23,6.63-.7,1.63-.46,2.83-1.13,3.59-2,.76-.86,1.15-1.9,1.15-3.09,0-1.53-.73-2.74-2.19-3.64-1.46-.9-3.38-1.66-5.74-2.29-2.36-.63-4.92-1.23-7.68-1.8-2.76-.56-5.57-1.31-8.43-2.25-2.86-.93-5.45-2.16-7.78-3.69-2.33-1.53-4.21-3.52-5.64-5.99-1.43-2.46-2.15-5.55-2.15-9.28,0-4.12,1.13-7.88,3.39-11.27,2.26-3.39,5.69-6.12,10.28-8.18,4.59-2.06,10.31-3.09,17.16-3.09,4.59,0,9.09.52,13.52,1.55,4.42,1.03,8.33,2.58,11.72,4.64l-5.99,14.57c-3.33-1.86-6.62-3.23-9.88-4.09-3.26-.86-6.42-1.3-9.48-1.3-2.73,0-4.92.3-6.58.9-1.66.6-2.86,1.36-3.59,2.29-.73.93-1.1,1.93-1.1,2.99,0,1.6.73,2.84,2.19,3.74,1.46.9,3.36,1.63,5.69,2.19,2.33.57,4.9,1.15,7.73,1.75,2.83.6,5.64,1.35,8.43,2.24s5.37,2.1,7.73,3.59c2.36,1.5,4.27,3.46,5.74,5.89,1.46,2.43,2.19,5.47,2.19,9.13,0,4.06-1.15,7.8-3.44,11.22-2.29,3.43-5.74,6.17-10.33,8.23-4.59,2.06-10.34,3.09-17.26,3.09Z"/>
      <path class="cls-2" d="M287.26,81V11.16h19.75v69.84h-19.75Z"/>
      <path class="cls-2" d="M345.53,82.4c-5.79,0-11.32-.72-16.61-2.15-5.29-1.43-9.56-3.24-12.82-5.44l6.49-14.67c3.13,2,6.73,3.64,10.83,4.94,4.09,1.3,8.16,1.95,12.22,1.95,2.79,0,5-.23,6.63-.7,1.63-.46,2.83-1.13,3.59-2,.76-.86,1.15-1.9,1.15-3.09,0-1.53-.73-2.74-2.2-3.64-1.46-.9-3.38-1.66-5.74-2.29-2.36-.63-4.92-1.23-7.68-1.8-2.76-.56-5.57-1.31-8.43-2.25-2.86-.93-5.45-2.16-7.78-3.69-2.33-1.53-4.21-3.52-5.64-5.99-1.43-2.46-2.14-5.55-2.14-9.28,0-4.12,1.13-7.88,3.39-11.27,2.26-3.39,5.69-6.12,10.28-8.18,4.59-2.06,10.31-3.09,17.16-3.09,4.59,0,9.09.52,13.52,1.55,4.42,1.03,8.33,2.58,11.72,4.64l-5.99,14.57c-3.33-1.86-6.62-3.23-9.88-4.09-3.26-.86-6.42-1.3-9.48-1.3-2.73,0-4.92.3-6.58.9-1.66.6-2.86,1.36-3.59,2.29-.73.93-1.1,1.93-1.1,2.99,0,1.6.73,2.84,2.19,3.74,1.46.9,3.36,1.63,5.69,2.19,2.33.57,4.9,1.15,7.73,1.75,2.83.6,5.64,1.35,8.43,2.24,2.79.9,5.37,2.1,7.73,3.59,2.36,1.5,4.27,3.46,5.74,5.89,1.46,2.43,2.2,5.47,2.2,9.13,0,4.06-1.15,7.8-3.44,11.22-2.29,3.43-5.74,6.17-10.33,8.23-4.59,2.06-10.34,3.09-17.26,3.09Z"/>
      <path class="cls-2" d="M410.08,82.4c-5.79,0-11.32-.72-16.61-2.15-5.29-1.43-9.56-3.24-12.82-5.44l6.49-14.67c3.13,2,6.73,3.64,10.83,4.94,4.09,1.3,8.16,1.95,12.22,1.95,2.79,0,5-.23,6.63-.7,1.63-.46,2.83-1.13,3.59-2,.76-.86,1.15-1.9,1.15-3.09,0-1.53-.73-2.74-2.2-3.64-1.46-.9-3.38-1.66-5.74-2.29-2.36-.63-4.92-1.23-7.68-1.8-2.76-.56-5.57-1.31-8.43-2.25-2.86-.93-5.45-2.16-7.78-3.69-2.33-1.53-4.21-3.52-5.64-5.99-1.43-2.46-2.14-5.55-2.14-9.28,0-4.12,1.13-7.88,3.39-11.27,2.26-3.39,5.69-6.12,10.28-8.18,4.59-2.06,10.31-3.09,17.16-3.09,4.59,0,9.09.52,13.52,1.55,4.42,1.03,8.33,2.58,11.72,4.64l-5.99,14.57c-3.33-1.86-6.62-3.23-9.88-4.09-3.26-.86-6.42-1.3-9.48-1.3-2.73,0-4.92.3-6.58.9-1.66.6-2.86,1.36-3.59,2.29-.73.93-1.1,1.93-1.1,2.99,0,1.6.73,2.84,2.19,3.74,1.46.9,3.36,1.63,5.69,2.19,2.33.57,4.9,1.15,7.73,1.75,2.83.6,5.64,1.35,8.43,2.24,2.79.9,5.37,2.1,7.73,3.59,2.36,1.5,4.27,3.46,5.74,5.89,1.46,2.43,2.2,5.47,2.2,9.13,0,4.06-1.15,7.8-3.44,11.22-2.29,3.43-5.74,6.17-10.33,8.23-4.59,2.06-10.34,3.09-17.26,3.09Z"/>
      <path class="cls-2" d="M484.9,82.4c-5.52,0-10.61-.88-15.26-2.64-4.66-1.76-8.71-4.26-12.17-7.48-3.46-3.23-6.15-7.07-8.08-11.52-1.93-4.46-2.89-9.34-2.89-14.67s.96-10.21,2.89-14.67c1.93-4.46,4.62-8.3,8.08-11.52,3.46-3.23,7.51-5.72,12.17-7.48,4.65-1.76,9.74-2.64,15.26-2.64,6.45,0,12.22,1.11,17.31,3.34,5.09,2.23,9.33,5.5,12.72,9.83l-12.57,11.37c-2.26-2.66-4.76-4.69-7.48-6.09-2.73-1.4-5.72-2.09-8.98-2.09-2.86,0-5.49.47-7.88,1.4-2.39.93-4.44,2.28-6.14,4.04-1.7,1.76-3.03,3.88-3.99,6.34-.96,2.46-1.45,5.19-1.45,8.18s.48,5.72,1.45,8.18c.96,2.46,2.29,4.57,3.99,6.34,1.7,1.76,3.74,3.11,6.14,4.04,2.39.93,5.02,1.4,7.88,1.4,3.26,0,6.25-.7,8.98-2.1,2.73-1.4,5.22-3.46,7.48-6.19l12.57,11.37c-3.39,4.32-7.63,7.62-12.72,9.88-5.09,2.26-10.86,3.39-17.31,3.39Z"/>
      <path class="cls-2" d="M555.34,82.4c-5.52,0-10.66-.9-15.41-2.69-4.76-1.8-8.86-4.34-12.32-7.63-3.46-3.29-6.17-7.15-8.13-11.57-1.96-4.42-2.94-9.26-2.94-14.52s.98-9.98,2.94-14.37c1.96-4.39,4.67-8.23,8.13-11.52,3.46-3.29,7.55-5.84,12.27-7.63,4.72-1.8,9.88-2.69,15.46-2.69s10.74.9,15.46,2.69c4.72,1.8,8.81,4.32,12.27,7.58,3.46,3.26,6.17,7.08,8.13,11.47,1.96,4.39,2.94,9.21,2.94,14.47s-.96,10.19-2.89,14.62c-1.93,4.42-4.64,8.27-8.13,11.52-3.49,3.26-7.6,5.79-12.32,7.58-4.72,1.8-9.88,2.69-15.46,2.69ZM555.34,66.03c2.66,0,5.14-.46,7.43-1.4,2.29-.93,4.29-2.28,5.99-4.04,1.7-1.76,3.03-3.86,3.99-6.29.96-2.43,1.45-5.17,1.45-8.23s-.48-5.8-1.45-8.23c-.96-2.43-2.29-4.52-3.99-6.29-1.7-1.76-3.69-3.11-5.99-4.04-2.29-.93-4.77-1.4-7.43-1.4s-5.14.47-7.43,1.4c-2.29.93-4.31,2.28-6.04,4.04-1.73,1.76-3.06,3.86-3.99,6.29-.93,2.43-1.4,5.17-1.4,8.23s.46,5.8,1.4,8.23c.93,2.43,2.26,4.52,3.99,6.29,1.73,1.76,3.74,3.11,6.04,4.04,2.29.93,4.77,1.4,7.43,1.4Z"/>
      <path class="cls-2" d="M636.75,82.4c-10.31,0-18.34-2.83-24.09-8.48-5.75-5.65-8.63-13.63-8.63-23.94V11.16h19.75v38.21c0,5.92,1.16,10.18,3.49,12.77,2.33,2.59,5.55,3.89,9.68,3.89s7.33-1.3,9.63-3.89c2.29-2.59,3.44-6.85,3.44-12.77V11.16h19.55v38.81c0,10.31-2.91,18.29-8.73,23.94-5.82,5.65-13.85,8.48-24.09,8.48Z"/>
      <path class="cls-2" d="M778.22,81V26.83h-21.45v-15.66h62.56v15.66h-21.35v54.17h-19.75Z"/>
      <path class="cls-2" d="M851.06,82.4c-5.79,0-11.32-.72-16.61-2.15-5.29-1.43-9.56-3.24-12.82-5.44l6.49-14.67c3.13,2,6.73,3.64,10.83,4.94,4.09,1.3,8.16,1.95,12.22,1.95,2.79,0,5-.23,6.63-.7,1.63-.46,2.83-1.13,3.59-2,.76-.86,1.15-1.9,1.15-3.09,0-1.53-.73-2.74-2.2-3.64-1.46-.9-3.38-1.66-5.74-2.29-2.36-.63-4.92-1.23-7.68-1.8-2.76-.56-5.57-1.31-8.43-2.25-2.86-.93-5.45-2.16-7.78-3.69-2.33-1.53-4.21-3.52-5.64-5.99-1.43-2.46-2.14-5.55-2.14-9.28,0-4.12,1.13-7.88,3.39-11.27,2.26-3.39,5.69-6.12,10.28-8.18,4.59-2.06,10.31-3.09,17.16-3.09,4.59,0,9.09.52,13.52,1.55,4.42,1.03,8.33,2.58,11.72,4.64l-5.99,14.57c-3.33-1.86-6.62-3.23-9.88-4.09-3.26-.86-6.42-1.3-9.48-1.3-2.73,0-4.92.3-6.58.9-1.66.6-2.86,1.36-3.59,2.29-.73.93-1.1,1.93-1.1,2.99,0,1.6.73,2.84,2.19,3.74,1.46.9,3.36,1.63,5.69,2.19,2.33.57,4.9,1.15,7.73,1.75,2.83.6,5.64,1.35,8.43,2.24,2.79.9,5.37,2.1,7.73,3.59,2.36,1.5,4.27,3.46,5.74,5.89,1.46,2.43,2.2,5.47,2.2,9.13,0,4.06-1.15,7.8-3.44,11.22-2.29,3.43-5.74,6.17-10.33,8.23-4.59,2.06-10.34,3.09-17.26,3.09Z"/>
    </g>
    <g>
      <polygon class="cls-2" points="683.04 44.05 683.04 81 702.3 81 702.3 67.3 683.04 44.05"/>
      <polygon class="cls-2" points="730.04 48.34 730.04 48.36 726.3 43.83 699.23 11.16 683.04 11.16 683.04 20.54 702.3 43.78 702.3 43.78 714.8 58.87 733.13 81 749.39 81 749.39 71.71 730.04 48.34"/>
      <polygon class="cls-2" points="749.39 48.2 749.39 11.16 730.04 11.16 730.04 24.83 749.39 48.2"/>
    </g>
    <g>
      <polygon class="cls-2" points="185.5 11.16 165.15 11.16 181.66 62.07 191.85 31.32 185.5 11.16"/>
      <polygon class="cls-2" points="232.49 11.16 214.34 11.16 191.18 81 209.04 81 222.87 38.36 229.63 59.85 238.85 31.46 232.49 11.16"/>
      <polygon class="cls-2" points="280.08 11.16 261.22 11.16 255.74 28.03 238.53 81 257.43 81 280.08 11.16"/>
    </g>
  </g>
  <g id="Layer_2" data-name="Layer 2">
    <polygon class="cls-1" points="18 40.5 9 45 9 81 18 81 18 40.5"/>
    <polygon class="cls-1" points="31.5 81 22.5 81 22.5 38.25 31.5 33.75 31.5 81"/>
    <polygon class="cls-1" points="45 81 36 81 36 31.5 45 36 45 81"/>
    <polygon class="cls-1" points="58.5 38.25 54 40.5 49.5 38.25 49.5 81 58.5 81 58.5 38.25"/>
    <polygon class="cls-1" points="63 36 72 31.5 72 81 63 81 63 36"/>
    <polygon class="cls-1" points="9 40.5 36 27 54 36 85.5 20.25 85.5 11.25 54 27 36 18 9 31.5 9 40.5"/>
    <polygon class="cls-1" points="76.5 29.25 85.5 24.75 85.5 81 76.5 81 76.5 29.25"/>
  </g>
</svg>