<?xml version="1.0" encoding="UTF-8"?><svg id="Layer_1" xmlns="http://www.w3.org/2000/svg" viewBox="0 0 1024 1024"><defs><style>.cls-1{fill:#f89e6a;}</style></defs><path class="cls-1" d="M141,534.03l-73.33-127.01c-.61,4.98-.99,10.11-1.13,15.41-.08,3.83,0,7.56.21,11.19l49.97,86.55c7.51,5.18,15.66,9.78,24.28,13.86Z"/><path class="cls-1" d="M281.25,572.36c7.25,1.88,13.86,3.95,19.85,6.19l-76.46-132.43c-4.24-1.8-8.12-3.74-11.63-5.81-9.9-5.85-14.85-13.97-14.85-24.38.18-4.21,1.04-8,2.46-11.42l-58.26-100.91c-4.2,2.21-8.27,4.56-12.21,7.05l151.1,261.72Z"/><path class="cls-1" d="M303.07,377.38c5.98.71,11.93,1.62,17.86,2.74l-60.42-104.65c-5.27.2-10.52.5-15.75.92l58.3,100.98Z"/><path class="cls-1" d="M268.48,375.67c2.02-.04,4.01-.06,5.95-.04,3.49.01,6.98.11,10.46.27l-56.47-97.8c-5.04.64-10.03,1.4-14.97,2.27l55.02,95.3Z"/><path class="cls-1" d="M120.02,614.07c-6.4-3.27-12.55-6.71-18.37-10.29l-1.7,3.71,77.59,134.39c5.95,1.04,11.92,1.96,17.87,2.76l-75.39-130.57Z"/><path class="cls-1" d="M210.46,391.56c3.5-2.88,7.59-5.29,12.07-7.28l-53.34-92.39c-4.52,1.62-8.94,3.36-13.26,5.23l54.53,94.44Z"/><path class="cls-1" d="M164.31,632.59c-7.04-2.36-13.97-4.94-20.73-7.71l70.37,121.89c5.72.54,11.4.98,17.02,1.29l-66.67-115.47Z"/><path class="cls-1" d="M413.13,504c-1.69-1.05-3.4-2.07-5.13-3.07l58.75,101.76c0-.29.03-.57.03-.87.16-12.52-1.31-24.06-4.27-34.67l-25.38-43.96c-6.91-7.11-14.93-13.51-24.01-19.2Z"/><path class="cls-1" d="M329.7,278.93c-5.77-.78-11.58-1.45-17.43-1.99l70.93,122.86c7.46,3.32,14.85,6.97,22.16,10.93l.18-.43-75.85-131.37Z"/><path class="cls-1" d="M441.47,326.13l4.39-10.3c-4.73-2.78-9.72-5.43-14.94-7.96l10.54,18.26Z"/><path class="cls-1" d="M204.05,643.22c-6.28-1.26-12.56-2.72-18.8-4.36l63.41,109.82c2.76.04,5.51.06,8.22.05,2.7.05,5.41.07,8.11.06l-60.95-105.56Z"/><path class="cls-1" d="M303.24,465.87c-6.22-1.34-12.41-2.63-18.54-3.92l136.98,237.25c3.67-3.19,7.18-6.53,10.48-10.05l-128.91-223.28Z"/><path class="cls-1" d="M92.27,624.2l-7.21,15.7,53.97,93.47c6.25,1.68,12.58,3.23,18.96,4.64l-65.71-113.82Z"/><path class="cls-1" d="M97.4,719.47c6.69,2.72,13.6,5.26,20.67,7.61l-40.69-70.47-7.21,15.7,27.23,47.16Z"/><path class="cls-1" d="M237.07,379.45c4.8-1.16,9.78-2.02,14.76-2.62l-53.88-93.32c-4.79,1.11-9.51,2.33-14.16,3.67l53.27,92.27Z"/><path class="cls-1" d="M383.82,489.05c-6.75-2.82-13.67-5.37-20.72-7.69l95.47,165.36c2.22-6.01,4.01-12.32,5.36-18.91l-80.11-138.76Z"/><path class="cls-1" d="M277.68,275.22l63.21,109.48c6.65,1.79,13.26,3.85,19.83,6.15l-66.5-115.17c-5.51-.26-11.03-.42-16.54-.46Z"/><path class="cls-1" d="M342.17,475.12c-6.31-1.71-12.67-3.3-19.05-4.8l119.24,206.53c3.12-4.26,5.96-8.73,8.54-13.4l-108.73-188.33Z"/><path class="cls-1" d="M62.5,689.03l-4.73,10.3c5.07,3.24,10.43,6.32,16.02,9.25l-11.29-19.55Z"/><path class="cls-1" d="M367.3,285.86c-6.07-1.43-12.25-2.73-18.52-3.88l64.13,111.07,6.92-16.21-52.53-90.98Z"/><path class="cls-1" d="M242.48,563.41c6.26,1.33,12.48,2.66,18.61,4.04l-143.28-248.18c-3.81,2.94-7.45,6.04-10.9,9.31l135.58,234.83Z"/><path class="cls-1" d="M407.95,298.08c-6.5-2.43-13.25-4.69-20.18-6.76l39.42,68.27,6.92-16.21-26.15-45.3Z"/><path class="cls-1" d="M264.93,457.71c-4.55-1.01-9.04-2.04-13.45-3.1-1.84-.43-3.63-.87-5.39-1.33l80.12,138.78c4.11,3.83,6.69,8.3,7.74,13.41l63.95,110.77c4.08-2.42,8.04-4.97,11.85-7.67l-144.83-250.85Z"/><path class="cls-1" d="M240.48,648.13c-5.7-.37-11.46-.94-17.26-1.71l58.8,101.85c5.2-.29,10.39-.7,15.56-1.24l-57.1-98.9Z"/><path class="cls-1" d="M163.63,543.23c2.71.94,5.44,1.84,8.2,2.7,3.87,1.28,7.78,2.47,11.72,3.61l-104.94-181.76c-2.49,5.44-4.64,11.14-6.39,17.12l91.41,158.33Z"/><path class="cls-1" d="M203.99,554.93c6.23,1.5,12.49,2.91,18.74,4.27l-126.56-219.21c-3.28,3.93-6.33,8.06-9.12,12.39l116.94,202.54Z"/><path class="cls-1" d="M304.95,643.41c-4.59,1.36-9.47,2.38-14.47,3.12l53.15,92.05c4.69-1.27,9.32-2.66,13.87-4.18l-52.54-91Z"/><path class="cls-1" d="M329.45,627.65c-2.68,3.97-6.31,7.2-10.61,9.82l52.93,91.67c4.41-1.8,8.72-3.73,12.93-5.79l-55.25-95.69Z"/><path class="cls-1" d="M274.09,648.16c-5.51.31-10.92.43-16.01.47l55.61,96.32c4.95-.78,9.86-1.68,14.72-2.7l-54.32-94.08Z"/><path class="cls-1" d="M517.44,429.52c-2.19,5.88-4.13,11.93-5.82,18.12l167.44,290.01c6.26,1.77,12.59,3.34,18.99,4.69l-180.61-312.82Z"/><path class="cls-1" d="M532.46,397.35c-2.73,4.83-5.3,9.78-7.69,14.88l192.55,333.51c5.77.82,11.58,1.48,17.41,1.97l-202.28-350.36Z"/><path class="cls-1" d="M639.22,494.06c.86-7.13,2.23-14.19,4.11-21.07l-72.38-125.37c-3.5,3.4-6.91,6.91-10.19,10.54l78.46,135.9Z"/><path class="cls-1" d="M743.68,384.03c5.05-.83,10.16-1.4,15.29-1.72l-58.27-100.93c-4.83.97-9.63,2.07-14.38,3.28l57.37,99.37Z"/><path class="cls-1" d="M714.68,392c4.44-1.75,8.99-3.29,13.63-4.58l-56.88-98.52c-4.58,1.44-9.11,2.99-13.59,4.66l56.84,98.45Z"/><path class="cls-1" d="M503.41,521.61c.42,11.61,1.61,23.16,3.6,34.43l75.86,131.39c8.82,7.43,18.18,14.2,28,20.31l-107.46-186.13Z"/><path class="cls-1" d="M799.13,277.31c-5.62-.56-11.29-.98-17.01-1.27l82.39,142.7c5.75,5.07,11.31,10.62,16.68,16.7l6.15-5.36-88.2-152.77Z"/><path class="cls-1" d="M965.92,361.6l.31-.27c-.49-.59-.99-1.16-1.48-1.75l1.16,2.02Z"/><path class="cls-1" d="M506.82,469.33c-1.31,7.65-2.27,15.41-2.86,23.24l132.21,228.99c7.02,3.34,14.21,6.38,21.54,9.11l-150.88-261.34Z"/><path class="cls-1" d="M942.03,641.19l-32.76-28.54,39.57,68.54c3.48-3.38,6.87-6.9,10.18-10.57l-16.99-29.43Z"/><path class="cls-1" d="M689.03,405.76c3.83-2.71,7.83-5.18,11.99-7.42l-57.22-99.11c-4.33,1.89-8.6,3.9-12.81,6.01l58.03,100.52Z"/><path class="cls-1" d="M696.57,623.4c-7.87-4.69-15.15-10.24-21.58-16.7-5.27-5.16-9.97-10.85-14.11-16.93l91.73,158.88c3.48.08,6.97.11,10.46.07,1.95,0,3.89-.03,5.82-.06l-72.33-125.27Z"/><path class="cls-1" d="M731.66,276.83c-5.1.48-10.18,1.08-15.23,1.81l59.8,103.57c5.84.29,11.65.93,17.37,1.89l-61.94-107.28Z"/><path class="cls-1" d="M764.52,275.54c-.48,0-.96-.01-1.45-.01-4.92-.05-9.83.02-14.72.2l65.4,113.28c5.8,1.88,11.44,4.12,16.81,6.76,1.62.8,3.22,1.64,4.82,2.5l-70.86-122.74Z"/><path class="cls-1" d="M879.16,590.49c-3.31,3.73-6.7,7.27-10.16,10.6l57.3,99.25c3.8-2.81,7.53-5.76,11.17-8.84l-58.32-101.01Z"/><path class="cls-1" d="M836.17,283.25c-6.02-1.36-12.12-2.51-18.3-3.5l80.99,140.28,10.83-9.44-73.52-127.34Z"/><path class="cls-1" d="M857.52,611.2c-3.74,3-7.56,5.78-11.45,8.35l55.74,96.54c4.11-2.28,8.15-4.69,12.11-7.22l-56.39-97.68Z"/><path class="cls-1" d="M926.7,323.67c-8.23-6.08-16.83-11.55-25.75-16.41l42.62,73.82,10.83-9.44-27.7-47.97Z"/><path class="cls-1" d="M877.13,296.01c-6.69-2.72-13.53-5.16-20.5-7.31l64.58,111.86,10.83-9.44-54.91-95.11Z"/><path class="cls-1" d="M833.14,627.17c-.85.44-1.71.89-2.57,1.31-3.36,1.65-6.82,3.14-10.36,4.49l55.23,95.65c4.4-1.77,8.73-3.66,13-5.68l-55.3-95.78Z"/><path class="cls-1" d="M652,574.39c-7.71-15.89-12.21-33.57-13.48-51.55l-88.02-152.46c-3.16,4.04-6.18,8.2-9.07,12.48l110.58,191.53Z"/><path class="cls-1" d="M649.91,454.38c2.25-5.13,4.82-10.08,7.71-14.83l-64.16-111.13c-3.8,2.85-7.52,5.82-11.14,8.89l67.59,117.07Z"/><path class="cls-1" d="M739.44,639.46c-6.56-1.28-13-3-19.26-5.16l65.66,113.73c5.21-.33,10.38-.78,15.51-1.34l-61.91-107.23Z"/><path class="cls-1" d="M805.58,637.62c-4.77,1.23-9.64,2.22-14.57,2.96l56.28,97.48c4.68-1.28,9.3-2.68,13.86-4.2l-55.56-96.24Z"/><path class="cls-1" d="M774.57,642.12c-5.46.22-10.95.13-16.41-.23l59.25,102.62c4.95-.8,9.84-1.72,14.69-2.76l-57.52-99.63Z"/><path class="cls-1" d="M667.17,426.1c2.45-2.98,5.05-5.83,7.82-8.54.74-.74,1.51-1.45,2.27-2.17l-59.47-103.01c-4.08,2.36-8.08,4.82-12.01,7.4l61.39,106.33Z"/></svg>